<svg width="58" height="28" viewBox="0 0 58 28" fill="none" xmlns="http://www.w3.org/2000/svg">
<path d="M12.0938 8.36781C12.6502 8.18235 13.2436 8.08344 13.8593 8.08344C16.5546 8.08344 18.8048 9.99735 19.3191 12.5418L23.1395 11.7629C22.2642 7.44053 18.4413 4.1864 13.8593 4.1864C12.8084 4.1864 11.802 4.35702 10.8574 4.67353L12.0938 8.36781Z" fill="#FFCB05"/>
<path d="M7.58614 20.7463L10.1702 17.826C9.01786 16.8048 8.29087 15.3137 8.29087 13.652C8.29087 11.9928 9.01786 10.5017 10.1702 9.48296L7.58614 6.56018C5.62773 8.29605 4.39136 10.8306 4.39136 13.652C4.39136 16.4759 5.62773 19.0104 7.58614 20.7463" fill="#00A4E0"/>
<path d="M19.3191 14.7697C18.8023 17.3116 16.5546 19.2231 13.8618 19.2231C13.2436 19.2231 12.6477 19.1242 12.0938 18.9362L10.8574 22.6354C11.802 22.9495 12.8109 23.1201 13.8618 23.1201C18.4388 23.1201 22.2592 19.8709 23.1395 15.5535L19.3191 14.7697Z" fill="#EF4123"/>
<path d="M26.4804 17.9472C26.3543 17.7444 26.1861 17.4205 26.0823 17.1807C25.4765 15.7761 25.4493 14.3222 25.9586 12.9275C26.52 11.3969 27.5931 10.2273 28.9803 9.6289C30.7236 8.87966 32.6499 9.02555 34.3215 10.0171C35.3823 10.6254 36.134 11.5651 36.7052 12.8954C36.7769 13.066 36.8412 13.2465 36.9055 13.4023L26.4804 17.9472ZM29.962 11.8865C28.7232 12.4182 28.0852 13.5803 28.2187 14.9403L33.4609 12.6827C32.5584 11.6244 31.3863 11.2733 29.962 11.8865V11.8865ZM34.1137 16.7974C34.1113 16.7974 34.1113 16.7999 34.1113 16.7999L34.0025 16.7257C33.6884 17.2326 33.2013 17.6455 32.5856 17.9126C31.4135 18.422 30.328 18.2909 29.5466 17.606L29.4749 17.7148C29.4749 17.7148 29.4749 17.7123 29.4724 17.7123L28.1421 19.7029C28.4734 19.9328 28.827 20.1257 29.1979 20.2815C30.6667 20.8922 32.1702 20.8626 33.6513 20.2197C34.722 19.7548 35.5628 19.0476 36.1364 18.15L34.1137 16.7974ZM40.5478 6.70117V17.7642L42.2688 18.4615L41.2921 20.7414L39.393 19.9501C38.9677 19.7647 38.676 19.4828 38.4584 19.1638C38.2482 18.8399 38.0924 18.3923 38.0924 17.7939V6.70117H40.5478ZM45.0037 14.9478C45.0037 14.0057 45.4216 13.16 46.0793 12.5863L44.3138 10.618C43.117 11.6763 42.3628 13.2218 42.3628 14.9428C42.3603 16.6663 43.1145 18.2143 44.3089 19.2726L46.0719 17.3043C45.4167 16.7281 45.0037 15.8874 45.0037 14.9478V14.9478ZM48.1391 18.0857C47.793 18.0857 47.4567 18.0263 47.1451 17.9225L46.3019 20.4274C46.878 20.6202 47.4938 20.7266 48.1367 20.7266C50.9309 20.729 53.2627 18.7459 53.8042 16.1124L51.2128 15.5833C50.9185 17.015 49.6549 18.0882 48.1391 18.0857V18.0857ZM48.1466 9.16897C47.5061 9.16897 46.8904 9.27282 46.3143 9.46323L47.15 11.9706C47.4641 11.8667 47.7979 11.8099 48.1441 11.8099C49.6623 11.8123 50.9284 12.8904 51.2152 14.3246L53.8067 13.8004C53.275 11.162 50.9432 9.17144 48.1466 9.16897V9.16897Z" fill="white"/>
</svg>
